HIERARCHY
ROOT Hips
{
  OFFSET 265.287 66.7526 -254.649
  CHANNELS 6 Xposition Yposition Zposition Zrotation Xrotation Yrotation
  JOINT LeftUpLeg
  {
    OFFSET 8.64259 1.95398 -2.38835
    CHANNELS 3 Zrotation Xrotation Yrotation
    JOINT LeftLeg
    {
      OFFSET 43.7702 0 0
      CHANNELS 3 Zrotation Xrotation Yrotation
      JOINT LeftFoot
      {
        OFFSET 40.6238 0 0
        CHANNELS 3 Zrotation Xrotation Yrotation
        JOINT LeftToeBase
        {
          OFFSET 12.7242 0 0
          CHANNELS 3 Zrotation Xrotation Yrotation
          End Site
          {
            OFFSET 0 0 0
          }
        }
      }
    }
  }
  JOINT RightUpLeg
  {
    OFFSET -8.2249 1.95398 -2.59336
    CHANNELS 3 Zrotation Xrotation Yrotation
    JOINT RightLeg
    {
      OFFSET 43.5653 0 0
      CHANNELS 3 Zrotation Xrotation Yrotation
      JOINT RightFoot
      {
        OFFSET 40.6238 0 0
        CHANNELS 3 Zrotation Xrotation Yrotation
        JOINT RightToeBase
        {
          OFFSET 12.7242 0 0
          CHANNELS 3 Zrotation Xrotation Yrotation
          End Site
          {
            OFFSET 0 0 0
          }
        }
      }
    }
  }
  JOINT Spine
  {
    OFFSET 0.165834 0.87714 6.61349
    CHANNELS 3 Zrotation Xrotation Yrotation
    JOINT Spine1
    {
      OFFSET 7.38963 1.71661e-005 0
      CHANNELS 3 Zrotation Xrotation Yrotation
      JOINT Spine2
      {
        OFFSET 11.9445 1.14441e-005 0
        CHANNELS 3 Zrotation Xrotation Yrotation
        JOINT Spine3
        {
          OFFSET 14.7254 4.19617e-005 0
          CHANNELS 3 Zrotation Xrotation Yrotation
          JOINT Spine4
          {
            OFFSET 10.9679 0 0
            CHANNELS 3 Zrotation Xrotation Yrotation
            JOINT RightShoulder
            {
              OFFSET 2.46616 -1.6653 3.69651
              CHANNELS 3 Zrotation Xrotation Yrotation
              JOINT RightArm
              {
                OFFSET 13.0012 0 0
                CHANNELS 3 Zrotation Xrotation Yrotation
                JOINT RightForeArm
                {
                  OFFSET 28.7848 1.52588e-005 0
                  CHANNELS 3 Zrotation Xrotation Yrotation
                  JOINT RightHand
                  {
                    OFFSET 26.5688 1.52588e-005 0
                    CHANNELS 3 Zrotation Xrotation Yrotation
                    End Site
                    {
                      OFFSET 0 0 0
                    }
                  }
                }
              }
            }
            JOINT LeftShoulder
            {
              OFFSET 2.38034 -1.29275 -3.7523
              CHANNELS 3 Zrotation Xrotation Yrotation
              JOINT LeftArm
              {
                OFFSET 16.3182 6.10351e-005 0
                CHANNELS 3 Zrotation Xrotation Yrotation
                JOINT LeftForeArm
                {
                  OFFSET 27.0901 0 0
                  CHANNELS 3 Zrotation Xrotation Yrotation
                  JOINT LeftHand
                  {
                    OFFSET 24.5451 1.52588e-005 0
                    CHANNELS 3 Zrotation Xrotation Yrotation
                    End Site
                    {
                      OFFSET 0 0 0
                    }
                  }
                }
              }
            }
            JOINT Neck
            {
              OFFSET 5.0226 -0.0266342 0
              CHANNELS 3 Zrotation Xrotation Yrotation
              JOINT Head
              {
                OFFSET 6.69364 2.86102e-005 0
                CHANNELS 3 Zrotation Xrotation Yrotation
                End Site
                {
                  OFFSET 0 0 0
                }
              }
            }
          }
        }
      }
    }
  }
}
MOTION
Frames:	10
Frame Time:	0.0416667
91.2663 81.4709 94.0326 -68.691 25.6783 -110.715 -178.749 21.4513 84.703 -55.3864 31.8193 2.50539 74.6339 12.2762 21.6466 62.5699 -8.82952 7.81289 -159.5 67.4027 70.8666 -129.342 -15.2319 -3.79092 48.2597 5.8434 8.84982 38.5991 -1.06751 -3.8919 -1.20746 9.83203 -89.5813 7.21171 -2.23099 0.944758 -4.45794 -2.18724 1.04206 -27.0069 -2.41182 0.230226 -6.99423 -2.41184 0.230212 101.09 -48.2335 -83.8746 32.3218 -6.61689 31.9998 -5.51538 -4.74227 -49.4545 -11.8807 -0.259738 -3.07549 -85.862 -35.103 82.2135 -6.80185 -19.5015 -62.9632 0.510025 -5.22813 -67.0492 15.7606 -1.2863 -11.8586 16.9489 -1.43573 -1.42925 2.94796 -0.548646 7.42367 
77.9131 85.8095 83.8991 -70.1042 25.7265 -98.072 179.963 5.5094 96.5643 -41.5445 31.448 11.5508 53.552 -1.11192 3.97203 71.771 -12.0041 4.69096 160.533 70.9676 105.535 -99.4374 -9.51864 -3.161 59.0367 0.924801 6.8502 57.8569 -4.61745 -2.86274 -1.193 10.104 -91.2791 6.62856 -2.92759 -2.40761 -5.04109 -3.03073 -2.27642 -27.5734 -2.06908 -3.17581 -7.56074 -2.06907 -3.17582 97.0396 -43.5957 -90.8287 37.5735 -3.91214 47.2448 9.082 9.84897 -52.537 -10.1108 0.0308003 -5.7924 -84.4117 -34.7924 84.7766 -8.99824 -16.3501 -51.8798 8.3684 -3.77583 -83.8352 17.7478 -1.09074 -10.0034 18.7039 1.24329 -2.08317 -0.838747 2.13496 13.0844 
63.95 88.7281 71.67 -70.8431 35.8136 -102.556 -178.199 -0.150662 90.2091 -43.4482 22.3945 5.12334 30.0613 -9.20112 -3.67867 53.6463 -7.75975 -0.44159 167.519 58.1203 95.9166 -67.8811 -16.3661 2.39137 56.1729 3.54649 6.70504 69.3188 -4.32866 6.3609 -0.664597 10.5113 -90.7042 5.83742 -1.6227 -1.3439 -5.83305 -1.68025 -1.27119 -28.3676 -1.14383 -1.7694 -8.35491 -1.14383 -1.76941 96.2751 -47.5096 -91.6344 31.7098 -9.48349 31.0566 17.7388 17.6725 -51.0347 -11.316 0.273588 -8.36067 -85.9296 -41.3401 83.2543 2.01599 10.549 -36.0553 4.86712 -5.41227 -56.6938 9.4884 -0.611491 -9.40225 19.9431 1.6759 -6.35885 -2.33499 3.79747 18.3762 
49.7154 87.8016 59.5438 -69.9115 42.0803 -102.808 -177.844 18.1839 89.1736 -83.2587 11.6816 1.3904 40.0285 -5.67253 11.2174 51.9017 -7.27262 -1.51413 163.979 40.2074 96.3192 -58.5566 -17.4434 7.74408 59.6239 1.5969 2.91282 58.4459 -3.76627 4.33742 -0.176074 10.532 -90.7414 5.80196 -0.661971 -1.43829 -5.86962 -0.724631 -1.40777 -28.3977 -0.199189 -1.57068 -8.38509 -0.199188 -1.5707 97.9075 -51.5391 -88.6801 20.6341 -13.5938 0.723945 18.3563 17.9133 -52.7064 -8.43802 0.193174 -8.32762 -88.7722 -51.7386 80.6369 3.59136 23.206 -25.542 -2.34871 14.61 -17.3151 11.3341 -0.491108 -7.74958 25.2242 2.96188 -4.02206 -8.08086 3.65704 15.6217 
37.2753 86.0497 48.0129 -65.4151 55.7275 -100.661 -176.081 44.1113 92.3431 -108.071 10.1938 0.961377 51.5572 1.02529 20.0806 47.9283 -6.03437 -1.79381 172.063 25.3143 97.7385 -55.2921 -20.1968 5.03911 67.0451 -0.594852 9.9924 57.0124 -2.9778 7.9556 1.03447 10.2157 -90.8371 6.44878 1.71124 -1.70846 -5.22238 1.6344 -1.78211 -27.7612 2.1455 -1.11516 -7.7485 2.14551 -1.11517 98.1875 -46.8025 -88.6428 19.2239 -11.8021 -32.1788 10.4791 9.10471 -62.2339 -8.26859 0.193744 -8.40938 -88.1801 -55.6617 82.2334 -9.18023 28.8359 8.93468 -2.92767 18.3887 -17.0031 11.6436 -0.0682698 -4.15499 23.4736 4.26732 -6.4775 -8.50433 5.57251 17.6295 
24.2716 86.315 34.9686 -60.2792 58.5152 -109.257 -179.058 64.6494 90.1397 -97.683 6.30848 1.1742 58.5789 4.36852 23.1448 51.7406 -7.07165 0.0311496 176.119 7.68395 90.8961 -38.6133 -20.5038 -0.567107 66.1589 0.439766 15.239 60.3405 -3.47853 6.51598 1.71071 9.69455 -90.1119 7.4914 3.36736 -0.38693 -4.17531 3.34708 -0.53494 -26.7448 3.32778 0.644145 -6.73215 3.3278 0.64414 100.175 -34.6234 -85.974 21.6942 -7.06751 -48.5573 -0.00369462 3.39172 -81.5542 -7.81022 0.187737 -8.51409 -89.5912 -44.3598 77.8703 -29.9294 29.8323 33.8564 -1.25933 13.23 -23.2742 9.88754 -0.347301 -6.76034 14.973 0.780135 -8.95367 -3.07348 3.23037 16.6066 
9.64117 88.3406 20.2884 -66.2855 51.4866 -105.127 -171.627 63.1342 81.6583 -69.4197 10.7825 -0.386716 58.9789 2.1595 16.7626 57.8927 -8.5554 2.72084 178.362 -9.94322 91.2147 -19.6925 -14.8931 -2.41266 23.0668 11.817 33.1986 48.9447 -1.66439 9.84609 1.27362 9.62549 -89.986 7.63397 2.54915 -0.107698 -4.03455 2.54194 -0.219853 -26.589 2.46366 0.663883 -6.57641 2.46365 0.663876 101.347 -35.1713 -83.6846 15.049 -14.0639 -39.7438 -5.86746 6.50531 -90.1585 -6.57949 0.231069 -10.0378 -90.7581 -42.521 75.5151 -25.0926 29.1979 24.465 -4.28959 3.44095 -21.5213 11.3196 -0.563147 -8.31796 7.75719 -1.0316 -13.2108 1.47764 2.5303 17.9841 
-5.44033 88.0773 4.8775 -75.4374 44.9227 -95.7713 -163.907 45.8894 80.209 -59.4772 18.6665 -5.37909 58.468 1.83018 20.4035 55.126 -7.93169 0.682624 177.561 1.4068 89.1491 -68.3364 -23.2709 -2.40852 28.6003 14.6784 18.5577 17.3935 1.21148 1.38311 0.478843 10.1079 -90.2598 6.66058 0.844939 -0.529945 -5.01003 0.820796 -0.566631 -27.5482 0.965109 -0.251488 -7.53555 0.965118 -0.251498 99.687 -44.9974 -86.2691 13.2521 -22.0279 -20.9505 -7.23559 4.09865 -72.0896 -6.57893 0.186109 -9.38147 -89.3754 -49.6471 79.3464 -3.03728 27.8876 -5.17624 -5.89702 -6.62728 -30.814 12.6649 -0.798413 -9.69766 10.0748 -0.87312 -17.5475 0.0582889 3.7333 19.6613 
-19.9536 85.5287 -10.1741 -80.772 34.0829 -98.2811 -168.555 22.9311 77.4558 -55.0089 24.648 -6.15562 71.6708 14.0742 32.38 49.4832 -6.38825 0.0294472 173.681 28.9819 89.9206 -107.806 -16.7959 -3.66919 35.8432 11.3112 8.00461 25.9859 1.44962 -7.96152 -0.559629 10.0295 -89.6437 6.81352 -0.965057 0.734127 -4.85735 -0.931804 0.775888 -27.3939 -1.14103 0.410135 -7.38127 -1.14104 0.410137 100.768 -52.6545 -84.2876 21.8437 -14.3151 4.94903 -6.74819 -5.57044 -51.5155 -10.7439 0.0180923 -5.65244 -88.3338 -49.882 80.9761 9.15891 16.8176 -37.9681 -6.47759 -10.2306 -43.3124 13.3705 -1.16332 -12.1199 12.7505 -1.89376 -10.79 -2.77226 0.964393 9.11637 
-34.6136 84.8228 -25.1717 -79.2268 21.9512 -97.9803 -176.359 9.12353 83.8416 -49.7549 29.4185 0.601371 72.5129 12.7129 26.5921 57.5238 -8.21892 4.08604 -179.658 58.2367 80.3085 -110.294 -11.9886 -4.00108 43.3854 7.74189 13.3905 42.9819 -2.11578 -5.47156 -1.45511 9.48411 -90.0946 7.90632 -2.94587 -0.0252578 -3.76127 -2.94416 0.10452 -26.3214 -2.802 -0.910165 -6.30873 -2.80199 -0.910165 101.118 -49.6226 -83.8066 31.3139 -5.20153 37.6815 -6.01202 -2.17847 -56.8616 -9.401 0.0298375 -5.83667 -87.8619 -42.813 80.327 1.21259 0.947624 -61.5336 0.230364 -7.2231 -63.313 14.0936 -1.13496 -11.579 15.1231 -2.49137 -4.85087 -5.05145 -1.14905 2.76622 
